<svg xmlns="http://www.w3.org/2000/svg" viewBox="0 0 32 32" width="32" height="32">
  <!-- Book cover -->
  <rect x="4" y="6" width="20" height="24" rx="2" fill="#8B4513" stroke="#654321" stroke-width="1"/>
  
  <!-- Book spine -->
  <rect x="24" y="6" width="2" height="24" fill="#654321"/>
  
  <!-- Book pages -->
  <rect x="6" y="8" width="16" height="20" fill="#FFF8DC" stroke="#DEB887" stroke-width="0.5"/>
  
  <!-- Text lines on pages -->
  <rect x="8" y="10" width="12" height="1" fill="#8B7355" rx="0.5"/>
  <rect x="8" y="12" width="10" height="1" fill="#8B7355" rx="0.5"/>
  <rect x="8" y="14" width="11" height="1" fill="#8B7355" rx="0.5"/>
  <rect x="8" y="16" width="9" height="1" fill="#8B7355" rx="0.5"/>
  <rect x="8" y="18" width="12" height="1" fill="#8B7355" rx="0.5"/>
  <rect x="8" y="20" width="10" height="1" fill="#8B7355" rx="0.5"/>
  <rect x="8" y="22" width="11" height="1" fill="#8B7355" rx="0.5"/>
  
  <!-- Bookmark ribbon -->
  <rect x="26" y="8" width="2" height="8" fill="#DC143C"/>
  <polygon points="26,16 27,18 28,16" fill="#DC143C"/>
</svg>
