<svg width="40" height="40" viewBox="0 0 40 40" fill="none" xmlns="http://www.w3.org/2000/svg">
  <!-- Background circle -->
  <circle cx="20" cy="20" r="20" fill="url(#gradient1)"/>
  
  <!-- Book pages -->
  <rect x="12" y="8" width="16" height="24" rx="2" fill="white" opacity="0.9"/>
  
  <!-- Book spine -->
  <rect x="12" y="8" width="2" height="24" fill="url(#gradient2)"/>
  
  <!-- Book cover -->
  <rect x="14" y="8" width="14" height="24" rx="1" fill="url(#gradient3)" stroke="url(#gradient2)" stroke-width="0.5"/>
  
  <!-- Text lines representing novel content -->
  <rect x="16" y="12" width="10" height="1" rx="0.5" fill="white" opacity="0.7"/>
  <rect x="16" y="15" width="8" height="1" rx="0.5" fill="white" opacity="0.7"/>
  <rect x="16" y="18" width="11" height="1" rx="0.5" fill="white" opacity="0.7"/>
  <rect x="16" y="21" width="9" height="1" rx="0.5" fill="white" opacity="0.7"/>
  <rect x="16" y="24" width="10" height="1" rx="0.5" fill="white" opacity="0.7"/>
  <rect x="16" y="27" width="7" height="1" rx="0.5" fill="white" opacity="0.7"/>
  
  <!-- Decorative elements -->
  <circle cx="18" cy="34" r="1" fill="url(#gradient2)" opacity="0.8"/>
  <circle cx="22" cy="34" r="1" fill="url(#gradient2)" opacity="0.8"/>
  
  <!-- Gradients -->
  <defs>
    <linearGradient id="gradient1" x1="0%" y1="0%" x2="100%" y2="100%">
      <stop offset="0%" style="stop-color:#0b7584;stop-opacity:1" />
      <stop offset="100%" style="stop-color:#22c55e;stop-opacity:1" />
    </linearGradient>
    <linearGradient id="gradient2" x1="0%" y1="0%" x2="100%" y2="100%">
      <stop offset="0%" style="stop-color:#0b7584;stop-opacity:1" />
      <stop offset="100%" style="stop-color:#1e40af;stop-opacity:1" />
    </linearGradient>
    <linearGradient id="gradient3" x1="0%" y1="0%" x2="100%" y2="100%">
      <stop offset="0%" style="stop-color:#22c55e;stop-opacity:0.9" />
      <stop offset="100%" style="stop-color:#0b7584;stop-opacity:0.9" />
    </linearGradient>
  </defs>
</svg>
